# xmcd CD database file
# Copyright (C) 1993-1998 Ti Kan
# 
# Track frame offsets:
#     182
#     25110
#     39400
#     53665
#     64675
#     91687
#     111660
#     136310
#     147732
#     178695
#     205392
#     216130
#     242452
# 
# Disc length: 3468 seconds
# 
# Revision: 1
# Processed by: cddbd v1.4b41PL1 Copyright (c) Steve Scherf et al.
# Submitted via: DiscPlay 4.0.4
# 
DISCID=bb0d8a0d
DTITLE=Oboroh - K men
DYEAR=1900
DGENRE=
TTITLE0=V tr
TTITLE1=ty ic t  noc
TTITLE2=Co ti zjev  moje o i
TTITLE3=Vol m k Hospodinu ( alm 142)
TTITLE4=Jak je B h dobr  k Izraeli ( alm 73)
TTITLE5=V ra
TTITLE6=Studn  nep ev  en 
TTITLE7=P n B h je s la m 
TTITLE8=Hora Karmel
TTITLE9=Modlitba No mova
TTITLE10=K   je n m B h milostiv ( alm 67)
TTITLE11=K men
TTITLE12=T lo
EXTD=
EXTT0=
EXTT1=
EXTT2=
EXTT3=
EXTT4=
EXTT5=
EXTT6=
EXTT7=
EXTT8=
EXTT9=
EXTT10=
EXTT11=
EXTT12=
PLAYORDER=
